<?xml version="1.0" standalone="no"?>
<!DOCTYPE svg PUBLIC "-//W3C//DTD SVG 20010904//EN"
 "http://www.w3.org/TR/2001/REC-SVG-20010904/DTD/svg10.dtd">
<svg version="1.0" xmlns="http://www.w3.org/2000/svg"
 width="501.000000pt" height="501.000000pt" viewBox="0 0 501.000000 501.000000"
 preserveAspectRatio="xMidYMid meet">
<metadata>
Created by potrace 1.14, written by Peter Selinger 2001-2017
</metadata>
<g transform="translate(0.000000,501.000000) scale(0.100000,-0.100000)"
fill="#000000" stroke="none">
<path d="M2195 4995 c-1141 -139 -2046 -1050 -2180 -2193 -78 -666 116 -1341
536 -1862 477 -591 1186 -930 1949 -930 1099 0 2055 702 2390 1755 147 464
147 1026 0 1490 -302 948 -1118 1626 -2098 1740 -154 18 -446 18 -597 0z
m-224 -1642 l132 -303 35 58 c90 151 206 215 351 191 183 -29 387 -194 525
-423 20 -33 36 -57 36 -54 0 4 6 40 14 81 28 144 105 260 211 315 44 24 61 27
150 27 91 0 105 -3 158 -29 161 -82 248 -269 218 -468 -29 -188 -144 -413
-290 -568 l-61 -65 51 95 c76 143 136 271 166 357 23 66 27 95 28 188 0 129
-15 171 -96 260 -130 141 -274 125 -385 -42 -49 -73 -89 -178 -104 -273 -7
-41 -15 -81 -19 -87 -4 -8 -21 11 -43 51 -88 153 -223 301 -366 404 -162 115
-292 121 -397 17 -125 -126 -108 -327 56 -645 139 -272 382 -586 688 -890 91
-91 153 -156 136 -146 -140 89 -414 316 -581 481 -191 188 -422 480 -475 599
l-19 44 -56 -33 c-70 -42 -117 -52 -315 -63 -169 -11 -217 -24 -273 -77 -80
-78 -73 -216 14 -283 14 -10 59 -37 101 -60 100 -55 107 -64 73 -91 -14 -11
-43 -26 -63 -32 -46 -14 -228 -24 -275 -15 -80 15 -124 93 -106 186 5 25 59
164 120 310 127 301 297 726 426 1067 48 128 91 230 95 225 4 -4 67 -143 140
-309z"/>
<path d="M1720 3178 c-36 -82 -297 -754 -294 -757 1 -2 16 6 33 18 52 38 113
52 261 62 80 5 168 14 195 20 51 10 125 51 125 69 0 13 -299 610 -305 610 -3
0 -10 -10 -15 -22z"/>
</g>
</svg>
